<?xml version="1.0" encoding="utf-8"?><svg xmlns="http://www.w3.org/2000/svg" xmlns:xlink="http://www.w3.org/1999/xlink"><symbol viewBox="0 0 384 512" class="asvg-inline--fa afa-angle-double-right afa-w-12 afa-5x" id="arrow" xmlns="http://www.w3.org/2000/svg"><path d="M363.8 264.5L217 412.5c-4.7 4.7-12.3 4.7-17 0l-19.8-19.8c-4.7-4.7-4.7-12.3 0-17L298.7 256 180.2 136.3c-4.7-4.7-4.7-12.3 0-17L200 99.5c4.7-4.7 12.3-4.7 17 0l146.8 148c4.7 4.7 4.7 12.3 0 17zm-160-17L57 99.5c-4.7-4.7-12.3-4.7-17 0l-19.8 19.8c-4.7 4.7-4.7 12.3 0 17L138.7 256 20.2 375.7c-4.7 4.7-4.7 12.3 0 17L40 412.5c4.7 4.7 12.3 4.7 17 0l146.8-148c4.7-4.7 4.7-12.3 0-17z"/></symbol><symbol viewBox="0 0 448 512" class="bsvg-inline--fa bfa-arrow-alt-left bfa-w-14 bfa-7x" id="arrow-left" xmlns="http://www.w3.org/2000/svg"><path d="M395.4 159.9H256V75c0-35.5-43-53.5-68.3-28.3L15.4 218.8c-20.6 20.6-20.6 53.8 0 74.4l172.3 172.1c25.1 25.1 68.3 7.4 68.3-28.3v-85h139.4c29 0 52.6-23.6 52.6-52.6v-86.9c0-29-23.6-52.6-52.6-52.6zM416 299.4c0 11.4-9.2 20.6-20.6 20.6H224v117c0 7.1-8.6 10.7-13.7 5.7L38 270.6c-8-8-8-21.1 0-29.1L210.3 69.4c5-5 13.7-1.5 13.7 5.7v117h171.4c11.4 0 20.6 9.2 20.6 20.6z"/></symbol><symbol viewBox="0 0 448 512" class="csvg-inline--fa cfa-arrow-alt-right cfa-w-14 cfa-5x" id="arrow-right" xmlns="http://www.w3.org/2000/svg"><path d="M32 212.57A20.57 20.57 0 0152.57 192H224V75a8 8 0 0113.66-5.66L410 241.44a20.56 20.56 0 010 29.11L237.66 442.63A8 8 0 01224 437V320H52.57A20.57 20.57 0 0132 299.42v-86.85m-32 0v86.85A52.63 52.63 0 0052.57 352H192v85c0 35.51 43 53.5 68.27 28.3l172.3-172.08a52.55 52.55 0 000-74.4L260.27 46.71C235.15 21.62 192 39.36 192 75v85H52.57A52.63 52.63 0 000 212.57z"/></symbol><symbol viewBox="0 0 320 512" class="dsvg-inline--fa dfa-times dfa-w-10 dfa-3x" id="close" xmlns="http://www.w3.org/2000/svg"><path d="M207.6 256l107.72-107.72c6.23-6.23 6.23-16.34 0-22.58l-25.03-25.03c-6.23-6.23-16.34-6.23-22.58 0L160 208.4 52.28 100.68c-6.23-6.23-16.34-6.23-22.58 0L4.68 125.7c-6.23 6.23-6.23 16.34 0 22.58L112.4 256 4.68 363.72c-6.23 6.23-6.23 16.34 0 22.58l25.03 25.03c6.23 6.23 16.34 6.23 22.58 0L160 303.6l107.72 107.72c6.23 6.23 16.34 6.23 22.58 0l25.03-25.03c6.23-6.23 6.23-16.34 0-22.58L207.6 256z"/></symbol><symbol viewBox="0 0 512 512" class="esvg-inline--fa efa-th-large efa-w-16 efa-3x" id="grid" xmlns="http://www.w3.org/2000/svg"><path d="M296 32h192c13.255 0 24 10.745 24 24v160c0 13.255-10.745 24-24 24H296c-13.255 0-24-10.745-24-24V56c0-13.255 10.745-24 24-24zm-80 0H24C10.745 32 0 42.745 0 56v160c0 13.255 10.745 24 24 24h192c13.255 0 24-10.745 24-24V56c0-13.255-10.745-24-24-24zM0 296v160c0 13.255 10.745 24 24 24h192c13.255 0 24-10.745 24-24V296c0-13.255-10.745-24-24-24H24c-13.255 0-24 10.745-24 24zm296 184h192c13.255 0 24-10.745 24-24V296c0-13.255-10.745-24-24-24H296c-13.255 0-24 10.745-24 24v160c0 13.255 10.745 24 24 24z"/></symbol><symbol viewBox="0 0 477.156 477.156" id="header1" xmlns="http://www.w3.org/2000/svg"><path d="M475.009 380.316l-2.375-7.156c-5.625-16.719-24.062-34.156-41-38.75l-62.688-17.125c-17-4.625-41.25 1.594-53.688 14.031l-22.688 22.688c-82.453-22.28-147.109-86.938-169.359-169.375L145.9 161.94c12.438-12.438 18.656-36.656 14.031-53.656l-17.094-62.719c-4.625-16.969-22.094-35.406-38.781-40.969L96.9 2.19c-16.719-5.563-40.563.063-53 12.5L9.962 48.659C3.899 54.69.024 71.94.024 72.003c-1.187 107.75 41.063 211.562 117.281 287.781 76.031 76.031 179.454 118.219 286.891 117.313.562 0 18.312-3.813 24.375-9.845l33.938-33.938c12.437-12.436 18.062-36.279 12.5-52.998z"/></symbol><symbol viewBox="0 0 24 24" id="header2" xmlns="http://www.w3.org/2000/svg"><path d="M21 3.01H3c-1.1 0-2 .9-2 2V9h2V4.99h18v14.03H3V15H1v4.01c0 1.1.9 1.98 2 1.98h18c1.1 0 2-.88 2-1.98v-14a2 2 0 00-2-2zM11 16l4-4-4-4v3H1v2h10v3z"/></symbol><symbol viewBox="0 0 32 32" id="header3" xmlns="http://www.w3.org/2000/svg"><path d="M18 22.082v-1.649c2.203-1.241 4-4.337 4-7.432 0-4.971 0-9-6-9s-6 4.029-6 9c0 3.096 1.797 6.191 4 7.432v1.649C7.216 22.637 2 25.97 2 30h28c0-4.03-5.216-7.364-12-7.918z"/></symbol><symbol viewBox="0 0 32 32" id="header4" xmlns="http://www.w3.org/2000/svg"><path d="M26.667 0H5.334C2.4 0 0 2.4 0 5.334v21.332C0 29.602 2.4 32 5.334 32h21.333C29.601 32 32 29.602 32 26.666V5.334C32 2.4 29.601 0 26.667 0zM5.707 27.707l-2.414-2.414 8-8 .914.914-6.5 9.5zm-.914-21.5l.914-.914L16 13.586l10.293-8.293.914.914L16 19.414 4.793 6.207zm21.5 21.5l-6.5-9.5.914-.914 8 8-2.414 2.414z"/></symbol><symbol viewBox="0 0 32 32" id="header5" xmlns="http://www.w3.org/2000/svg"><path d="M10 12h4v4h-4zm6 0h4v4h-4zm6 0h4v4h-4zM4 24h4v4H4zm6 0h4v4h-4zm6 0h4v4h-4zm-6-6h4v4h-4zm6 0h4v4h-4zm6 0h4v4h-4zM4 18h4v4H4zM26 0v2h-4V0H8v2H4V0H0v32h30V0h-4zm2 30H2V8h26v22z"/></symbol><symbol viewBox="0 0 32 32" id="header6" xmlns="http://www.w3.org/2000/svg"><path d="M12 29a3 3 0 11-6 0 3 3 0 016 0zm20 0a3 3 0 11-6 0 3 3 0 016 0zm0-13V4H8a2 2 0 00-2-2H0v2h4l1.502 12.877A4 4 0 008 24h24v-2H8a2 2 0 01-2-2v-.02L32 16z"/></symbol><symbol viewBox="0 0 512 512" class="lsvg-inline--fa lfa-th-list lfa-w-16 lfa-3x" id="list" xmlns="http://www.w3.org/2000/svg"><path d="M149.333 216v80c0 13.255-10.745 24-24 24H24c-13.255 0-24-10.745-24-24v-80c0-13.255 10.745-24 24-24h101.333c13.255 0 24 10.745 24 24zM0 376v80c0 13.255 10.745 24 24 24h101.333c13.255 0 24-10.745 24-24v-80c0-13.255-10.745-24-24-24H24c-13.255 0-24 10.745-24 24zM125.333 32H24C10.745 32 0 42.745 0 56v80c0 13.255 10.745 24 24 24h101.333c13.255 0 24-10.745 24-24V56c0-13.255-10.745-24-24-24zm80 448H488c13.255 0 24-10.745 24-24v-80c0-13.255-10.745-24-24-24H205.333c-13.255 0-24 10.745-24 24v80c0 13.255 10.745 24 24 24zm-24-424v80c0 13.255 10.745 24 24 24H488c13.255 0 24-10.745 24-24V56c0-13.255-10.745-24-24-24H205.333c-13.255 0-24 10.745-24 24zm24 264H488c13.255 0 24-10.745 24-24v-80c0-13.255-10.745-24-24-24H205.333c-13.255 0-24 10.745-24 24v80c0 13.255 10.745 24 24 24z"/></symbol></svg>